PathFileType	4	(X/Y/Z)	1_2_17_p0_0-370_filt_butterworth.trc
DataRate	CameraRate	NumFrames	NumMarkers	Units	OrigDataRate	OrigDataStartFrame	OrigNumFrames
59.0	59.0	6	27	m	59.0	92	370
Frame#	Time	RHip			RKnee			RAnkle			RBigToe			RSmallToe			RHeel			LHip			LKnee			LAnkle			LBigToe			LSmallToe			LHeel			Neck			Head			Nose			RShoulder			RElbow			RWrist			RThumb			RIndex			RPinky			LShoulder			LElbow			LWrist			LThumb			LIndex			LPinky			
		X1	Y1	Z1	X2	Y2	Z2	X3	Y3	Z3	X4	Y4	Z4	X5	Y5	Z5	X6	Y6	Z6	X7	Y7	Z7	X8	Y8	Z8	X9	Y9	Z9	X10	Y10	Z10	X11	Y11	Z11	X12	Y12	Z12	X13	Y13	Z13	X14	Y14	Z14	X15	Y15	Z15	X16	Y16	Z16	X17	Y17	Z17	X18	Y18	Z18	X19	Y19	Z19	X20	Y20	Z20	X21	Y21	Z21	X22	Y22	Z22	X23	Y23	Z23	X24	Y24	Z24	X25	Y25	Z25	X26	Y26	Z26	X27	Y27	Z27	
92	1.5593220338983051	0.34564014545411786	0.9514600731413952	0.18201623771528386	0.3389003150861825	0.5209494385715936	0.22473016899797715	0.3558397771831073	0.06223821509919071	0.3552435454510323	0.3195203055032585	0.04213832144395908	0.1554010341170936	0.3881558842693694	0.033805779619700466	0.1988997686588618	0.3373774104147062	-0.023463284002458437	0.4374670052875186	0.12582389863114127	0.9434137412621758	0.18911998646713182	0.15131300745159282	0.49848206102339354	0.2623884590047215	0.1895225200785295	0.06324674774558389	0.3591410546367922	0.17159905164347328	0.028590865594112183	0.17007374403066547	0.12460684731520683	0.04527309450069646	0.21176116547499277	0.21390279580068	-0.016420031123071527	0.4177500725747444	0.22757236226394179	1.6170035226818786	0.23054029289307432	0.2265673711629642	1.8751876716546738	0.1764181918699546	0.21822231179576435	1.7526591069561985	0.11670392692837296	0.417920916456243	1.503457739260417	0.1834979897186486	0.4911669363976012	1.217698552021862	0.1939658946295889	0.49860596120942713	0.9525988945812226	0.08023468929712237	0.4484060441383969	0.8180955538265662	0.05070020732810654	0.4814172874257857	0.8068561528893895	0.0505889780673099	0.48850726466485084	0.7851253198167781	0.11268094211799212	0.04024673676438455	1.4940734879842312	0.23914390307488462	-0.03281682879125006	1.2054261620444509	0.2405401475258223	-0.03583548047883702	0.925710063177411	0.20412059474980532	0.025576129821105437	0.8287943095865168	0.1712247189326885	-0.022827555785257456	0.7903275997922864	0.18136559482504921	-0.03483621118808643	0.7865808571095136	0.2074380471977767	
93	1.576271186440678	0.3454190265240821	0.9515306400426762	0.18279288226947132	0.338581122295518	0.5226009145121254	0.22398433437967433	0.3561847545194808	0.0617614687458611	0.3548052037707621	0.3194600157318682	0.04229707191398182	0.1550350143144023	0.387949130272091	0.03140686585904845	0.20182676474902922	0.33720055975226165	-0.02326961711835865	0.43713031165490746	0.12562536275405975	0.9438326121177746	0.18927337483853085	0.15115424568496208	0.49930875780686945	0.26201795856849486	0.18942825010576972	0.06341025562559263	0.3588972916042502	0.1716655000088347	0.029647527004813184	0.16774036308596024	0.12474056548334142	0.044635323965370614	0.21115406234976591	0.21379878555659199	-0.016612258036103104	0.41786521842056057	0.22753025187943643	1.6176888331736041	0.2308432530878016	0.22601716551831108	1.8751531326758664	0.17630518893842184	0.21819789046692484	1.7526278347160649	0.11667770556004722	0.4178487140180339	1.5039663978669344	0.18351008521482778	0.4910472983998209	1.217618172606614	0.19405324708891647	0.4977180801615558	0.9523122783423343	0.08005014268712382	0.4465361992817175	0.819634457398705	0.048182140028737136	0.4813813909853318	0.8067946338724941	0.04994797586276367	0.4881305640515773	0.7852330763615866	0.11263940579360185	0.040349541142056314	1.4940916188474258	0.23916389204220737	-0.033235853778840266	1.205504237974402	0.24152577005895037	-0.03582106808261677	0.9255135803891624	0.20442951885394112	0.02495882249108678	0.8282396200877278	0.1723723646644155	-0.02292260680809602	0.7914787001091912	0.1814746453051424	-0.03474477850051624	0.7868965484771667	0.20744924191243277	
94	1.5932203389830508	0.34516536497726535	0.9515707683685287	0.1837011890450615	0.33824922927724754	0.5244102173310334	0.22330095511270454	0.35665461407238525	0.06144009746269016	0.35440578652349386	0.31968397908290724	0.0422823780577185	0.15489294403472156	0.3877986598752382	0.028521499838576846	0.2059399552254162	0.3371002013097123	-0.0232911158287182	0.4368470926977197	0.12552363579849227	0.9441766401882616	0.1891923123281467	0.15100736698402775	0.5002005177842638	0.26169812695347394	0.18933271328128642	0.06356533340785155	0.3586905324501593	0.17148505515815318	0.0295961772863173	0.16620596128257417	0.12484831089911491	0.04397879811278142	0.21067889361825837	0.21366278462157282	-0.01724735595670175	0.41859679659983995	0.22774444470902117	1.6182574818890088	0.23132802101242797	0.22522217388453636	1.8751042477590212	0.17593688282562506	0.21816585188837456	1.7526262147147629	0.11664996216709975	0.4175052953175237	1.5044754196595274	0.18285836470279304	0.49065939318695984	1.217484346674054	0.19345259041389795	0.4969401427320008	0.9515927397444686	0.07989779957522951	0.4444882147224828	0.8210937823566579	0.04492735407016825	0.48020812324759243	0.8067880221892046	0.04819904477985481	0.4875091225194712	0.7852823659688674	0.11231139379311451	0.04022794376401383	1.4940943483071818	0.2393721422561897	-0.03327408753011788	1.2056447275353548	0.24167302138503677	-0.03577709703749313	0.925018830182642	0.20466782313184312	0.023807361863375363	0.8277997173034622	0.17286707512469457	-0.022954131175344186	0.7920759665499402	0.18183648138168199	-0.0346897063018479	0.7872431505132096	0.20760365467566883	
95	1.6101694915254237	0.34484975109382154	0.9516658079095172	0.1844525894473274	0.33789728350726206	0.5262597665539666	0.22263035699974276	0.3571990840434983	0.061189214987668716	0.35411790279990885	0.3202340982402032	0.04189459494863286	0.15535124005016662	0.3876815490994855	0.02564829173461093	0.21032245178045886	0.33710133784121804	-0.0234841768341534	0.43663706600835833	0.12551408429594377	0.9444566881930738	0.18888456572707424	0.1508806900904998	0.5011272379959142	0.2614394155882973	0.1892226002420723	0.06364985004727383	0.358506062539576	0.17129075950867229	0.029011177249967372	0.1656766702455185	0.12492163777633122	0.04339796888009191	0.21040181480607797	0.21351415285509606	-0.018182554125749092	0.41982236519895905	0.22795041787804005	1.6185758148783118	0.2316643355318643	0.2243652627230917	1.8750416064669333	0.17548376077820885	0.21813377146502072	1.7526326248532693	0.11661555440060789	0.4167712765847653	1.5049617236952897	0.18154415981988303	0.49004909414957476	1.2173627318770697	0.19216634980747188	0.4962725802521897	0.9508713292476052	0.07948822889277453	0.44226273461039445	0.8223310509024804	0.041198702367632484	0.4773620225804317	0.8069307440445405	0.04535216623242928	0.4866888840349368	0.7854013743213216	0.11176270158765073	0.03982701755788403	1.4940941557014196	0.239552705435138	-0.033048831809217374	1.2058860661244017	0.2412187688935183	-0.035707257161180686	0.9243367478064018	0.20477399189819218	0.022305759394450675	0.827371359506622	0.17289165667867268	-0.02296187537900458	0.7922032186064643	0.18213390984370625	-0.034759691300393386	0.7873501163229858	0.20802609582830534	
96	1.6271186440677967	0.3444922708127718	0.9518352575108907	0.18478891282071727	0.3375566890542459	0.527956470897694	0.2220104931442919	0.3577961755518395	0.061021326221189165	0.3539763969317722	0.3211382858586495	0.0410212189067045	0.1566495288006391	0.38761134290756394	0.023315154944915442	0.21420811518995883	0.3372053972357711	-0.02374161569264725	0.43648917195547166	0.1255608585218846	0.9447611846991066	0.18841531028498637	0.15076688009505457	0.502026277405008	0.261224173180175	0.18908519851634056	0.06365150635605138	0.3583449769264453	0.17118598227159132	0.028498827616544084	0.16589529588973836	0.12495867255612915	0.04298504352312707	0.21034658370531023	0.21334146188791026	-0.019144487873526427	0.421146076816019	0.22782847455631722	1.6185464907264873	0.23137662056070657	0.2236076027216266	1.8749755134378092	0.1751331855019463	0.218117329869644	1.752635848392873	0.11661088253722422	0.4156402011603064	1.5053439588828554	0.17974485035394996	0.4893991845841377	1.2173239146242232	0.19038945317187383	0.49565266460780455	0.950536595538719	0.07861164082151037	0.4399557132323414	0.8234401069854004	0.037314706900502245	0.47285430715869603	0.8073471972868536	0.041659089034329834	0.4857609491830238	0.7855656554692536	0.11126665898829079	0.039182821444815934	1.4940993811156016	0.23954030715516988	-0.03276079821218183	1.2062555658336351	0.24055467694316152	-0.03559814618882493	0.92365841311905	0.20474025159373688	0.020889813292251397	0.8269681226986935	0.17272792729472958	-0.02297800157110909	0.7920834513125854	0.1822327531877052	-0.03484729141053989	0.7872450304421028	0.20840953501608153	
97	1.6440677966101696	0.34413693579757604	0.9520265883586976	0.18468602733504325	0.33726408515254136	0.5293998719566213	0.22152245507062523	0.35841717048212113	0.06099563670051411	0.35398224151746477	0.32226713657391903	0.03973866548821571	0.15868649483432276	0.3875877712129298	0.021796596475831542	0.2171572953477667	0.33739948801519415	-0.02397687878332507	0.43639601122890626	0.1256077570653705	0.9451440958555111	0.18791903050764064	0.15065252026580378	0.5028773089665107	0.26101639954786127	0.18891459341375158	0.06360734837808285	0.35820493654079755	0.1711713308009098	0.028427001166797288	0.1663637561749466	0.12496115507055852	0.04278146506929415	0.2104833844678877	0.21316522887910824	-0.01987816276295274	0.422141814944488	0.22721866886537628	1.6181945700113296	0.23016239957313928	0.22305158470522102	1.8749611392860785	0.17503361753774174	0.21813606852545359	1.7526347099385793	0.11671255518326679	0.41422786431696146	1.5055345886907834	0.17769336163469857	0.4888183030951051	1.2175021455758006	0.18833415055941205	0.49504294424850803	0.95075627161928	0.07730973466309994	0.4377272389534328	0.8246532278690648	0.03369097732122336	0.4672604967034324	0.8081502407332823	0.037431287136871536	0.4848332298068263	0.78561753327365	0.111199120855728	0.038387562118912845	1.4941124292340937	0.23929889110026709	-0.032619502577067014	1.2066907184597317	0.24010544746829554	-0.035454659108584904	0.9232910513272419	0.20465444916359887	0.020014316182709758	0.8267256424507027	0.17250683909759734	-0.02300151695674364	0.791927322859829	0.1821916845537612	-0.034746680216614895	0.7872313604388294	0.2082849452369827	
